<?xml version="1.0" encoding="UTF-8" standalone="no"?>
<svg width="548px" height="588px" viewBox="0 0 548 588" version="1.1" xmlns="http://www.w3.org/2000/svg" xmlns:xlink="http://www.w3.org/1999/xlink" xmlns:sketch="http://www.bohemiancoding.com/sketch/ns">
    <!-- Generator: Sketch 3.4.2 (15855) - http://www.bohemiancoding.com/sketch -->
    <title>skypager-logo-nobg</title>
    <desc>Created with Sketch.</desc>
    <defs></defs>
    <g id="Page-1" stroke="none" stroke-width="1" fill="none" fill-rule="evenodd" sketch:type="MSPage">
        <g id="skypager-logo-nobg" sketch:type="MSLayerGroup" transform="translate(-101.000000, -57.000000)">
            <rect id="background" sketch:type="MSShapeGroup" x="0" y="0" width="750" height="750"></rect>
            <g id="logo-type" transform="translate(101.500000, 576.500000)" sketch:type="MSShapeGroup">
                <g id="Group">
                    <path d="M0.3945,57.6895 L8.956,47.4345 C14.883,52.327 21.0915,55.4315 28.618,55.4315 C34.545,55.4315 38.12,53.079 38.12,49.2225 L38.12,49.034 C38.12,45.365 35.862,43.4825 24.855,40.661 C11.59,37.2745 3.029,33.6055 3.029,20.528 L3.029,20.3395 C3.029,8.3915 12.625,0.49 26.0785,0.49 C35.674,0.49 43.859,3.5 50.5385,8.863 L43.012,19.7745 C37.1795,15.7295 31.4405,13.284 25.89,13.284 C20.3395,13.284 17.423,15.824 17.423,19.0235 L17.423,19.211 C17.423,23.539 20.246,24.9505 31.6285,27.867 C44.9875,31.3485 52.514,36.1465 52.514,47.624 L52.514,47.8125 C52.514,60.8885 42.542,68.2265 28.3365,68.2265 C18.3635,68.2255 8.297,64.745 0.3945,57.6895 L0.3945,57.6895 Z" id="Shape" fill="#72BAE7"></path>
                    <path d="M74.5275,1.4305 L89.0165,1.4305 L89.0165,30.2185 L115.7345,1.4305 L133.233,1.4305 L106.421,29.372 L134.456,67.285 L117.051,67.285 L96.6365,39.25 L89.0165,47.1525 L89.0165,67.286 L74.5275,67.286 L74.5275,1.4305 L74.5275,1.4305 L74.5275,1.4305 Z" id="Shape" fill="#72BAE7"></path>
                    <path d="M168.3225,41.3195 L143.016,1.4315 L159.95,1.4315 L175.661,27.867 L191.6535,1.4315 L208.118,1.4315 L182.8115,41.038 L182.8115,67.286 L168.3225,67.286 L168.3225,41.3195 L168.3225,41.3195 Z" id="Shape" fill="#72BAE7"></path>
                    <path d="M226.5545,1.4305 L253.4605,1.4305 C269.1715,1.4305 278.6735,10.744 278.6735,24.1965 L278.6735,24.385 C278.6735,39.625 266.82,47.5285 252.05,47.5285 L241.0425,47.5285 L241.0425,67.285 L226.554,67.285 L226.5545,1.4305 L226.5545,1.4305 L226.5545,1.4305 Z M252.5205,34.6405 C259.764,34.6405 263.998,30.3125 263.998,24.668 L263.998,24.4795 C263.998,17.9885 259.482,14.508 252.238,14.508 L241.042,14.508 L241.042,34.6415 L252.5205,34.6405 L252.5205,34.6405 L252.5205,34.6405 Z" id="Shape" fill="#5592B5"></path>
                    <path d="M305.3925,0.96 L318.7515,0.96 L346.9745,67.285 L331.828,67.285 L325.8075,52.5145 L297.96,52.5145 L291.9395,67.285 L277.169,67.285 L305.3925,0.96 L305.3925,0.96 Z M320.633,39.7205 L311.884,18.364 L303.135,39.7205 L320.633,39.7205 L320.633,39.7205 Z" id="Shape" fill="#5592B5"></path>
                    <path d="M349.9845,34.546 L349.9845,34.3585 C349.9845,15.6375 364.5665,0.302 384.511,0.302 C396.3655,0.302 403.5155,3.5 410.3825,9.333 L401.257,20.34 C396.177,16.1065 391.6615,13.662 384.0405,13.662 C373.504,13.662 365.131,22.9755 365.131,34.171 L365.131,34.3595 C365.131,46.4015 373.4105,55.245 385.0755,55.245 C390.344,55.245 395.0475,53.927 398.717,51.294 L398.717,41.886 L384.135,41.886 L384.135,29.375 L412.7345,29.375 L412.7345,57.9745 C405.9605,63.713 396.647,68.417 384.605,68.417 C364.0955,68.414 349.9845,54.0205 349.9845,34.546 L349.9845,34.546 Z" id="Shape" fill="#5592B5"></path>
                    <path d="M426.656,1.4305 L476.33,1.4305 L476.33,14.3185 L441.0505,14.3185 L441.0505,27.6785 L472.0965,27.6785 L472.0965,40.5665 L441.0505,40.5665 L441.0505,54.3955 L476.8005,54.3955 L476.8005,67.2835 L426.6565,67.2835 L426.656,1.4305 L426.656,1.4305 L426.656,1.4305 Z" id="Shape" fill="#5592B5"></path>
                    <path d="M489.688,1.4305 L519.793,1.4305 C528.166,1.4305 534.6575,3.782 538.9855,8.1095 C542.6545,11.7785 544.63,16.953 544.63,23.162 L544.63,23.3495 C544.63,33.9805 538.891,40.66 530.518,43.7645 L546.6055,67.2835 L529.6715,67.2835 L515.5595,46.2105 L504.1755,46.2105 L504.1755,67.2835 L489.687,67.2835 L489.688,1.4305 L489.688,1.4305 L489.688,1.4305 Z M518.8525,33.417 C525.908,33.417 529.9535,29.6545 529.9535,24.1035 L529.9535,23.915 C529.9535,17.706 525.626,14.508 518.5695,14.508 L504.1755,14.508 L504.1755,33.417 L518.8525,33.417 L518.8525,33.417 L518.8525,33.417 Z" id="Shape" fill="#5592B5"></path>
                </g>
            </g>
            <g id="background-smoke" transform="translate(326.000000, 410.000000)" fill="#C1C1C0" sketch:type="MSShapeGroup">
                <g id="Group" transform="translate(0.000000, 31.000000)">
                    <ellipse id="Oval" cx="22.229" cy="27.367" rx="21.7755" ry="21.7755"></ellipse>
                    <ellipse id="Oval" cx="15.2745" cy="8.7705" rx="8.301" ry="8.301"></ellipse>
                </g>
                <circle id="Oval" cx="122.7445" cy="38.123" r="35.0045"></circle>
                <circle id="Oval" cx="165.7445" cy="20.173" r="20.118"></circle>
            </g>
            <path d="M361.424,378.2245 L348.4725,503.587 L398.0295,506.797 L389.5585,378.2225 L361.424,378.2245 Z" id="smoke-trail" fill="#D1D2D1" sketch:type="MSShapeGroup"></path>
            <path d="M581.584,511.7255 C581.584,503.8065 576.17,497.1525 568.841,495.2635 C571.2735,489.1925 572.6145,482.5675 572.6145,475.629 C572.6145,446.461 548.9715,422.8155 519.803,422.8155 C501.5245,422.8155 485.4175,432.1025 475.9375,446.214 C472.6745,443.8495 468.6645,442.451 464.3255,442.451 C459.178,442.451 454.4905,444.415 450.968,447.632 C443.6515,440.9315 433.9065,436.839 423.204,436.839 C400.4925,436.839 382.0825,455.25 382.0825,477.961 C382.0825,479.084 382.14,480.1935 382.2285,481.293 C380.5365,479.54 378.186,478.495 375.085,478.495 C371.143,478.495 368.411,480.1805 366.708,482.869 C363.509,480.7795 359.799,479.408 355.8065,478.9805 C354.6965,472.711 349.216,467.9455 342.627,467.9455 C341.0725,467.9455 339.577,468.211 338.192,468.701 C331.4475,460.326 321.1125,454.966 309.522,454.966 C307.942,454.966 306.3865,455.0655 304.8625,455.256 C304.897,454.831 304.913,454.4005 304.913,453.9715 C304.913,445.086 297.713,437.881 288.8225,437.881 C282.458,437.881 276.953,441.581 274.342,446.9455 C265.797,438.666 254.147,433.581 241.317,433.581 C215.082,433.581 193.812,454.8505 193.812,481.091 C193.812,485.831 194.507,490.411 195.8015,494.7305 C195.6715,494.7255 195.5465,494.7255 195.4165,494.7255 C186.031,494.7255 178.4165,502.336 178.4165,511.7255 C178.4165,521.1145 186.031,528.7255 195.4165,528.7255 L564.7515,528.7255 L564.7485,528.7205 C574.0615,528.633 581.584,521.0595 581.584,511.7255 L581.584,511.7255 Z" id="foreground-smoke" fill="#E2E1E0" sketch:type="MSShapeGroup"></path>
            <g id="rocket" transform="translate(249.000000, 57.500000)" sketch:type="MSShapeGroup">
                <path d="M152.0435,27.23 L99.9565,27.2305 C111.526,-0.706 125.999,0.4235 125.999,0.4235 C125.999,0.4235 140.4755,-0.706 152.0435,27.23 L152.0435,27.23 Z" id="nose" fill="#5592B5"></path>
                <path d="M71.4725,253.529 L60.312,253.5295 L12.09,306.055 L0.0505,319.2235 C12.749,231.2575 51.6185,176.7835 65.622,154.993 L63.8615,216.0365 C63.8605,216.9525 63.8815,217.883 63.9245,218.8275 C64.4015,229.701 67.561,242.0535 71.4725,253.529 L71.4725,253.529 Z" id="left-wing" fill="#5592B5"></path>
                <path d="M251.949,319.2265 L239.9145,306.0585 L191.6925,253.5285 L180.538,253.5285 C184.45,242.0515 187.6095,229.7005 188.087,218.8265 C188.129,217.884 188.1515,216.9545 188.1515,216.0365 L186.391,154.9875 C200.3925,176.777 239.2615,231.2525 251.949,319.2265 L251.949,319.2265 Z" id="right-wing" fill="#5592B5"></path>
                <path d="M173.986,114.4085 C171.205,83.439 163.169,56.686 154.442,35.6155 L97.575,35.6155 C88.8415,56.6855 80.807,83.439 78.0235,114.408 C78.0235,114.408 74.503,217.886 74.546,218.8275 C75.0245,229.701 78.1825,242.0515 82.096,253.5285 C89.3805,274.906 99.271,293.231 99.271,293.231 L152.74,293.231 C152.74,293.231 162.63,274.905 169.914,253.528 C173.827,242.0515 176.9855,229.702 177.464,218.8255 C177.508,217.8835 173.986,114.4085 173.986,114.4085 L173.986,114.4085 Z M125.6905,210.552 C116.1655,210.552 108.443,202.8295 108.443,193.3035 C108.442,183.777 116.1655,176.055 125.6915,176.0545 C135.218,176.055 142.94,183.7775 142.94,193.302 C142.94,202.8275 135.2155,210.552 125.6905,210.552 L125.6905,210.552 Z M125.6905,153.1485 C113.1165,153.1475 102.922,142.9525 102.922,130.3785 C102.922,117.8 113.1165,107.6095 125.6915,107.6095 C138.266,107.6095 148.459,117.8 148.46,130.3785 C148.459,142.953 138.266,153.147 125.6905,153.1485 L125.6905,153.1485 Z" id="body" fill="#72BAE7"></path>
                <path d="M145.7915,302.0095 L140.55,311.985 L111.4605,311.987 L106.2195,302.0085 L145.7915,302.0095 Z" id="tail" fill="#5592B5"></path>
            </g>
        </g>
    </g>
</svg>