<?xml version="1.0" encoding="UTF-8" standalone="no"?>
<svg width="91px" height="99px" viewBox="0 0 91 99" version="1.1" xmlns="http://www.w3.org/2000/svg" xmlns:xlink="http://www.w3.org/1999/xlink" xmlns:sketch="http://www.bohemiancoding.com/sketch/ns">
    <!-- Generator: Sketch 3.4.2 (15855) - http://www.bohemiancoding.com/sketch -->
    <title>skypager-logo-nobg</title>
    <desc>Created with Sketch.</desc>
    <defs></defs>
    <g id="Page-1" stroke="none" stroke-width="1" fill="none" fill-rule="evenodd" sketch:type="MSPage">
        <g id="skypager-logo-nobg" sketch:type="MSLayerGroup" transform="translate(-17.000000, -9.000000)">
            <rect id="background" sketch:type="MSShapeGroup" x="0" y="0" width="125" height="125"></rect>
            <g id="logo-type" transform="translate(16.916667, 96.083333)" sketch:type="MSShapeGroup">
                <g id="Group">
                    <path d="M0.06575,9.61491667 L1.49266667,7.90575 C2.4805,8.72116667 3.51525,9.23858333 4.76966667,9.23858333 C5.7575,9.23858333 6.35333333,8.8465 6.35333333,8.20375 L6.35333333,8.17233333 C6.35333333,7.56083333 5.977,7.24708333 4.1425,6.77683333 C1.93166667,6.21241667 0.504833333,5.60091667 0.504833333,3.42133333 L0.504833333,3.38991667 C0.504833333,1.39858333 2.10416667,0.0816666667 4.34641667,0.0816666667 C5.94566667,0.0816666667 7.30983333,0.583333333 8.42308333,1.47716667 L7.16866667,3.29575 C6.19658333,2.62158333 5.24008333,2.214 4.315,2.214 C3.38991667,2.214 2.90383333,2.63733333 2.90383333,3.17058333 L2.90383333,3.20183333 C2.90383333,3.92316667 3.37433333,4.15841667 5.27141667,4.6445 C7.49791667,5.22475 8.75233333,6.02441667 8.75233333,7.93733333 L8.75233333,7.96875 C8.75233333,10.1480833 7.09033333,11.3710833 4.72275,11.3710833 C3.06058333,11.3709167 1.38283333,10.7908333 0.06575,9.61491667 L0.06575,9.61491667 Z" id="Shape" fill="#72BAE7"></path>
                    <path d="M12.42125,0.238416667 L14.8360833,0.238416667 L14.8360833,5.03641667 L19.2890833,0.238416667 L22.2055,0.238416667 L17.7368333,4.89533333 L22.4093333,11.2141667 L19.5085,11.2141667 L16.1060833,6.54166667 L14.8360833,7.85875 L14.8360833,11.2143333 L12.42125,11.2143333 L12.42125,0.238416667 L12.42125,0.238416667 L12.42125,0.238416667 Z" id="Shape" fill="#72BAE7"></path>
                    <path d="M28.05375,6.88658333 L23.836,0.238583333 L26.6583333,0.238583333 L29.2768333,4.6445 L31.94225,0.238583333 L34.6863333,0.238583333 L30.4685833,6.83966667 L30.4685833,11.2143333 L28.05375,11.2143333 L28.05375,6.88658333 L28.05375,6.88658333 Z" id="Shape" fill="#72BAE7"></path>
                    <path d="M37.7590833,0.238416667 L42.2434167,0.238416667 C44.8619167,0.238416667 46.4455833,1.79066667 46.4455833,4.03275 L46.4455833,4.06416667 C46.4455833,6.60416667 44.47,7.92141667 42.0083333,7.92141667 L40.17375,7.92141667 L40.17375,11.2141667 L37.759,11.2141667 L37.7590833,0.238416667 L37.7590833,0.238416667 L37.7590833,0.238416667 Z M42.08675,5.77341667 C43.294,5.77341667 43.9996667,5.05208333 43.9996667,4.11133333 L43.9996667,4.07991667 C43.9996667,2.99808333 43.247,2.418 42.0396667,2.418 L40.1736667,2.418 L40.1736667,5.77358333 L42.08675,5.77341667 L42.08675,5.77341667 L42.08675,5.77341667 Z" id="Shape" fill="#5592B5"></path>
                    <path d="M50.89875,0.16 L53.12525,0.16 L57.8290833,11.2141667 L55.3046667,11.2141667 L54.30125,8.75241667 L49.66,8.75241667 L48.6565833,11.2141667 L46.1948333,11.2141667 L50.89875,0.16 L50.89875,0.16 Z M53.4388333,6.62008333 L51.9806667,3.06066667 L50.5225,6.62008333 L53.4388333,6.62008333 L53.4388333,6.62008333 Z" id="Shape" fill="#5592B5"></path>
                    <path d="M58.33075,5.75766667 L58.33075,5.72641667 C58.33075,2.60625 60.7610833,0.0503333333 64.0851667,0.0503333333 C66.0609167,0.0503333333 67.2525833,0.583333333 68.3970833,1.5555 L66.8761667,3.39 C66.0295,2.68441667 65.2769167,2.277 64.00675,2.277 C62.2506667,2.277 60.8551667,3.82925 60.8551667,5.69516667 L60.8551667,5.72658333 C60.8551667,7.73358333 62.2350833,9.2075 64.17925,9.2075 C65.0573333,9.2075 65.84125,8.98783333 66.4528333,8.549 L66.4528333,6.981 L64.0225,6.981 L64.0225,4.89583333 L68.7890833,4.89583333 L68.7890833,9.66241667 C67.6600833,10.6188333 66.1078333,11.4028333 64.1008333,11.4028333 C60.6825833,11.4023333 58.33075,9.00341667 58.33075,5.75766667 L58.33075,5.75766667 Z" id="Shape" fill="#5592B5"></path>
                    <path d="M71.1093333,0.238416667 L79.3883333,0.238416667 L79.3883333,2.38641667 L73.5084167,2.38641667 L73.5084167,4.61308333 L78.68275,4.61308333 L78.68275,6.76108333 L73.5084167,6.76108333 L73.5084167,9.06591667 L79.46675,9.06591667 L79.46675,11.2139167 L71.1094167,11.2139167 L71.1093333,0.238416667 L71.1093333,0.238416667 L71.1093333,0.238416667 Z" id="Shape" fill="#5592B5"></path>
                    <path d="M81.6146667,0.238416667 L86.6321667,0.238416667 C88.0276667,0.238416667 89.1095833,0.630333333 89.8309167,1.35158333 C90.4424167,1.96308333 90.7716667,2.8255 90.7716667,3.86033333 L90.7716667,3.89158333 C90.7716667,5.66341667 89.8151667,6.77666667 88.4196667,7.29408333 L91.1009167,11.2139167 L88.2785833,11.2139167 L85.9265833,7.70175 L84.02925,7.70175 L84.02925,11.2139167 L81.6145,11.2139167 L81.6146667,0.238416667 L81.6146667,0.238416667 L81.6146667,0.238416667 Z M86.4754167,5.5695 C87.6513333,5.5695 88.3255833,4.94241667 88.3255833,4.01725 L88.3255833,3.98583333 C88.3255833,2.951 87.6043333,2.418 86.42825,2.418 L84.02925,2.418 L84.02925,5.5695 L86.4754167,5.5695 L86.4754167,5.5695 L86.4754167,5.5695 Z" id="Shape" fill="#5592B5"></path>
                </g>
            </g>
            <g id="background-smoke" transform="translate(54.333333, 68.333333)" fill="#C1C1C0" sketch:type="MSShapeGroup">
                <g id="Group" transform="translate(0.000000, 5.166667)">
                    <ellipse id="Oval" cx="3.70483333" cy="4.56116667" rx="3.62925" ry="3.62925"></ellipse>
                    <ellipse id="Oval" cx="2.54575" cy="1.46175" rx="1.3835" ry="1.3835"></ellipse>
                </g>
                <ellipse id="Oval" cx="20.4574167" cy="6.35383333" rx="5.83408333" ry="5.83408333"></ellipse>
                <ellipse id="Oval" cx="27.6240833" cy="3.36216667" rx="3.353" ry="3.353"></ellipse>
            </g>
            <path d="M60.2373333,63.0374167 L58.07875,83.9311667 L66.33825,84.4661667 L64.9264167,63.0370833 L60.2373333,63.0374167 Z" id="smoke-trail" fill="#D1D2D1" sketch:type="MSShapeGroup"></path>
            <path d="M96.9306667,85.2875833 C96.9306667,83.96775 96.0283333,82.85875 94.8068333,82.5439167 C95.21225,81.5320833 95.43575,80.4279167 95.43575,79.2715 C95.43575,74.4101667 91.49525,70.46925 86.6338333,70.46925 C83.5874167,70.46925 80.9029167,72.0170833 79.3229167,74.369 C78.7790833,73.9749167 78.11075,73.7418333 77.3875833,73.7418333 C76.5296667,73.7418333 75.7484167,74.0691667 75.1613333,74.6053333 C73.9419167,73.4885833 72.31775,72.8065 70.534,72.8065 C66.74875,72.8065 63.6804167,75.875 63.6804167,79.6601667 C63.6804167,79.8473333 63.69,80.03225 63.70475,80.2155 C63.42275,79.9233333 63.031,79.7491667 62.5141667,79.7491667 C61.8571667,79.7491667 61.4018333,80.0300833 61.118,80.4781667 C60.5848333,80.1299167 59.9665,79.9013333 59.3010833,79.8300833 C59.1160833,78.7851667 58.2026667,77.9909167 57.1045,77.9909167 C56.8454167,77.9909167 56.5961667,78.0351667 56.3653333,78.1168333 C55.24125,76.721 53.51875,75.8276667 51.587,75.8276667 C51.3236667,75.8276667 51.0644167,75.84425 50.8104167,75.876 C50.8161667,75.8051667 50.8188333,75.7334167 50.8188333,75.6619167 C50.8188333,74.181 49.6188333,72.9801667 48.1370833,72.9801667 C47.0763333,72.9801667 46.1588333,73.5968333 45.7236667,74.4909167 C44.2995,73.111 42.3578333,72.2635 40.2195,72.2635 C35.847,72.2635 32.302,75.8084167 32.302,80.1818333 C32.302,80.9718333 32.4178333,81.7351667 32.6335833,82.4550833 C32.6119167,82.45425 32.5910833,82.45425 32.5694167,82.45425 C31.0051667,82.45425 29.7360833,83.7226667 29.7360833,85.2875833 C29.7360833,86.8524167 31.0051667,88.1209167 32.5694167,88.1209167 L94.12525,88.1209167 L94.12475,88.1200833 C95.6769167,88.1055 96.9306667,86.84325 96.9306667,85.2875833 L96.9306667,85.2875833 Z" id="foreground-smoke" fill="#E2E1E0" sketch:type="MSShapeGroup"></path>
            <g id="rocket" transform="translate(41.500000, 9.583333)" sketch:type="MSShapeGroup">
                <path d="M25.3405833,4.53833333 L16.6594167,4.53841667 C18.5876667,-0.117666667 20.9998333,0.0705833333 20.9998333,0.0705833333 C20.9998333,0.0705833333 23.4125833,-0.117666667 25.3405833,4.53833333 L25.3405833,4.53833333 Z" id="nose" fill="#5592B5"></path>
                <path d="M11.9120833,42.2548333 L10.052,42.2549167 L2.015,51.0091667 L0.00841666667,53.2039167 C2.12483333,38.5429167 8.60308333,29.4639167 10.937,25.8321667 L10.6435833,36.0060833 C10.6434167,36.15875 10.6469167,36.3138333 10.6540833,36.47125 C10.7335833,38.2835 11.2601667,40.34225 11.9120833,42.2548333 L11.9120833,42.2548333 Z" id="left-wing" fill="#5592B5"></path>
                <path d="M41.9915,53.2044167 L39.98575,51.00975 L31.94875,42.25475 L30.0896667,42.25475 C30.7416667,40.3419167 31.26825,38.2834167 31.3478333,36.4710833 C31.3548333,36.314 31.3585833,36.1590833 31.3585833,36.0060833 L31.0651667,25.83125 C33.39875,29.4628333 39.8769167,38.5420833 41.9915,53.2044167 L41.9915,53.2044167 Z" id="right-wing" fill="#5592B5"></path>
                <path d="M28.9976667,19.0680833 C28.5341667,13.9065 27.1948333,9.44766667 25.7403333,5.93591667 L16.2625,5.93591667 C14.8069167,9.44758333 13.4678333,13.9065 13.0039167,19.068 C13.0039167,19.068 12.4171667,36.3143333 12.4243333,36.47125 C12.5040833,38.2835 13.0304167,40.3419167 13.6826667,42.25475 C14.89675,45.8176667 16.5451667,48.8718333 16.5451667,48.8718333 L25.4566667,48.8718333 C25.4566667,48.8718333 27.105,45.8175 28.319,42.2546667 C28.9711667,40.3419167 29.4975833,38.2836667 29.5773333,36.4709167 C29.5846667,36.3139167 28.9976667,19.0680833 28.9976667,19.0680833 L28.9976667,19.0680833 Z M20.9484167,35.092 C19.3609167,35.092 18.0738333,33.8049167 18.0738333,32.21725 C18.0736667,30.6295 19.3609167,29.3425 20.9485833,29.3424167 C22.5363333,29.3425 23.8233333,30.6295833 23.8233333,32.217 C23.8233333,33.8045833 22.5359167,35.092 20.9484167,35.092 L20.9484167,35.092 Z M20.9484167,25.52475 C18.85275,25.5245833 17.1536667,23.8254167 17.1536667,21.72975 C17.1536667,19.6333333 18.85275,17.9349167 20.9485833,17.9349167 C23.0443333,17.9349167 24.7431667,19.6333333 24.7433333,21.72975 C24.7431667,23.8255 23.0443333,25.5245 20.9484167,25.52475 L20.9484167,25.52475 Z" id="body" fill="#72BAE7"></path>
                <path d="M24.2985833,50.3349167 L23.425,51.9975 L18.57675,51.9978333 L17.70325,50.33475 L24.2985833,50.3349167 Z" id="tail" fill="#5592B5"></path>
            </g>
        </g>
    </g>
</svg>